# xmcd
#
# Track frame offsets: 
#        150
#        19755
#        45177
#        65872
#        90835
#        109927
#        131405
#        151780
#        173030
#        190532
#        208025
#        230575
#
# Disc length: 3320 seconds
#
# Revision: 6
# Processed by: cddbd v1.5.2PL0 Copyright (c) Steve Scherf et al.
# Submitted via: ExactAudioCopy v0.95b2
#
DISCID=8f0cf60c
DTITLE=Aaron Neville - To Make Me Who I Am
DYEAR=1997
DGENRE=R&B
TTITLE0=Say What's In My Heart
TTITLE1=Just To Be With You
TTITLE2=Sweet Amelia
TTITLE3=To Make Me Who I Am
TTITLE4=The First Time Ever I Saw Your Face
TTITLE5=Yes, I Love You
TTITLE6=Your Sweet and Smiling Eyes
TTITLE7=I Can't Change The Way You Don't Feel
TTITLE8=Please Remember Me
TTITLE9=What Did I Do (To Deserve You)
TTITLE10=God Made You For Me
TTITLE11=Lovely Lady Dressed In Blue
EXTD=
EXTT0=
EXTT1=
EXTT2=
EXTT3=
EXTT4=
EXTT5=
EXTT6=
EXTT7=
EXTT8=
EXTT9=
EXTT10=
EXTT11=
PLAYORDER=
